# xmcd CD database file
#
# Track frame offsets:
#	150
#	25925
#	51282
#	72320
#	98791
#	127073
#	148668
#	170402
#	191858
#	215821
#	236162
#	254831
#
# Disc length: 3685 seconds
#
# Revision: 0
# Processed by: cddbd v1.5.2PL0 Copyright (c) Steve Scherf et al.
# Submitted via: jetAudio 7
#
DISCID=c50e630c
DTITLE=Wu Yiwen  - The Pair Fly Together
DYEAR=1900
DGENRE=New Age
TTITLE0=The Pair Fly Together
TTITLE1=Breeze In May
TTITLE2=Moon Above The Street
TTITLE3=Fisherman's Girl
TTITLE4=On The Mound
TTITLE5=Dream
TTITLE6=Shanghai By Night
TTITLE7=Beautiful Woman In The Moonlight
TTITLE8=Praying In The Moonlight
TTITLE9=Homeless Female Professional Singer
TTITLE10=Telling Me
TTITLE11=Thinking Of Husband
EXTD=
EXTT0=
EXTT1=
EXTT2=
EXTT3=
EXTT4=
EXTT5=
EXTT6=
EXTT7=
EXTT8=
EXTT9=
EXTT10=
EXTT11=
PLAYORDER=
